/* XPM */
static char *_e4a8fb0284a4ebda187b4826993ae17N1ONLSPcZFQSTreL[] = {
/* columns rows colors chars-per-pixel */
"50 50 130 2 ",
"   c black",
".  c #060506",
"X  c #080511",
"o  c #090809",
"O  c #030205",
"+  c #030208",
"@  c #04030C",
"#  c #010001",
"$  c #010102",
"%  c #030202",
"&  c #0A0715",
"*  c #0D0610",
"=  c #060205",
"-  c #07030A",
";  c #180E22",
":  c #0F1011",
">  c #0C0C0D",
",  c #130C1D",
"<  c #1B1738",
"1  c #180B0D",
"2  c #0D0505",
"3  c #141416",
"4  c #100A19",
"5  c #22142E",
"6  c #8AE1FC",
"7  c #1C1B1D",
"8  c #202022",
"9  c #BCECFD",
"0  c #394757",
"q  c #212D3D",
"w  c #0C0B21",
"e  c #DEF6FE",
"r  c #D0F1FD",
"t  c #2B5164",
"y  c #323943",
"u  c #A6E8FE",
"i  c #95E2FC",
"p  c #74D6FB",
"a  c #283445",
"s  c #301E22",
"d  c #1F1117",
"f  c #18181A",
"g  c #E3F9FD",
"h  c #110E2C",
"j  c #1B2735",
"k  c #2E3339",
"l  c #3B3D49",
"z  c #1A102A",
"x  c #050416",
"c  c #101015",
"v  c #201D47",
"b  c #D8F4FE",
"n  c #C9F2FD",
"m  c #162D3C",
"M  c #242939",
"N  c #82E2F9",
"B  c #B5E7FC",
"V  c #212633",
"C  c #67B2CB",
"Z  c #ADE9FD",
"A  c #70CCEF",
"S  c #87DCFC",
"D  c #9DE1FD",
"F  c #271831",
"G  c #694F82",
"H  c #252628",
"J  c #F8FEFF",
"K  c #E8F9FE",
"L  c #EEFDFF",
"P  c #26303F",
"I  c #416677",
"U  c #323C4D",
"Y  c #69D2F4",
"T  c #65C6E6",
"R  c #110813",
"E  c #392649",
"W  c #281C3F",
"Q  c #B5EDFD",
"!  c #1E1E2E",
"~  c #58A1BC",
"^  c #477B92",
"/  c #80D9F7",
"(  c #162331",
")  c #306076",
"_  c #366B84",
"`  c #90E6FD",
"'  c #7EDCFD",
"]  c #282452",
"[  c #5E4576",
"{  c #513C66",
"}  c #1F3745",
"|  c #C3F0FB",
" . c #3C7F9D",
".. c #101B21",
"X. c #76C2D8",
"o. c #4F6A7D",
"O. c #5289A2",
"+. c #387796",
"@. c #6EBCD6",
"#. c #54B7DC",
"$. c #66A8BC",
"%. c #445B6B",
"&. c #234764",
"*. c #57B1D1",
"=. c #7BD2F9",
"-. c #3C273A",
";. c #422D56",
":. c #674F56",
">. c #4D3862",
",. c #4E3943",
"<. c #433F7C",
"1. c #2E2964",
"2. c #2A263F",
"3. c #9FEBFF",
"4. c #628293",
"5. c #4296B6",
"6. c #4A90AB",
"7. c #76D4F1",
"8. c #5BA9C7",
"9. c #5C4748",
"0. c #332E70",
"q. c #4485A2",
"w. c #4DADD3",
"e. c #3B5164",
"r. c #2C465C",
"t. c #826995",
"y. c #422D2C",
"u. c #1B546F",
"i. c #484F5F",
"p. c #2F2F59",
/* pixels */
"                              $ 3 o     #       % 3 #       # #               % o       #           ",
"                            $ @ M ; O   #     % . H                     $ #   o f   $ $   7 .       ",
"                % % # O     O & ; ; & $ $     % #   %       O R .   % # # $   > f - + @ $ 3 .       ",
"                # # % >     O 4 z ;.E * + $       : 8     # - 7 *   #       - ! ; ; & @ +           ",
"                      #       $ ; G G z $         # %       % - O           O 4 >.[ 5 X O   % .     ",
"      # - R - #               o c 5 W ; +   $ $                             $ X { G 5 @ O   % o     ",
"      O 5 ;.F O               . . O O & @ O @ O # # %                     O @ @ 4 z & @ +           ",
"      O F [ -.=     # O #             O - & * - O o 3                     O & X > @ X & @           ",
"      # * ; R $       $ #               + ; >.E -   #         # o         . > c 3 + @ X +           ",
"      % > % $ % O                 # $ $ + 5 G G ,             # o     # % . % > 3 @ + @ $     > >   ",
"      # O       o .               # $ O + * F F *             # o       # # O o o $ $ -       O .   ",
"                8 8               . # $ + $ O O $               #         $ c f O           + @ + $ ",
"          # % $               % O O     $   # #                           $ O : 7         $ w ] < + ",
"        $ * 5 , % : .         # $ $             o } .                       # 3 8         $ w ] < @ ",
"        O F t.E - O # $ X x +                   m 5.m                       o O %           + x @ $ ",
"        % ; E 5 =     @ v v x $                 ) T ) $                                       $ % # ",
"    o . # = - . #     + < < @ $     : 7   % 3 a $.6 C 0 8 % $                                       ",
"    O %               $ @ @ $       . c H k V t @.6 A _ k k k :                           # % O     ",
"                  $   $ + @ $       : y y ..( +.A i p  .m ( y 0 3                           . 3     ",
"              # + - @ x h w +   7 8 k P 2.V t *./ u S *.t P P P y f                                 ",
"$             * 5 z & < <.v +   8 y V j U 0 ^ Y i 9 D 7.O.%.0 q M l f                               ",
"#   $       $ z G { & h v w O O k q j a %.4.C S u n Z N X.4.o.0 q P V O                             ",
": 7 %       $ ; ;.E X @ j t t I O.+. .6.~ @./ i 9 b 9 i 6 X.8.~ q.+.O.I t t m O                     ",
": 8           = * * 7 . q 6.A ' / =.p p ' 6 3.Q r g r Q 3.` 6 S ' =.=.6 Y ~ } $                     ",
"              # $   > # O ..^ A / i u Z B B 9 n b K e n | 9 9 Q u 6 p A  .m $                       ",
"O .   # O # # $ $       . % ..O.#.p D 9 r b e e K L K g e b r 9 D p #.q...                          ",
"o :   # O   $         $ $   : 0 u.w.p 6 Z r g L J J J L e n B i p #.) q c                           ",
"%             # . = $ # #   c l ( ) 8.7.i Q r K J J J g r Q D / *._ } ( c                           ",
"o %           O ; F 4 - .   c l ! a o.@.` Z n e L L L g n Z ` X.4.0 q M :                           ",
"$             - 2.>.5 , 3   : y M U %.$.N u r K e b e K b u N $.o.0 a U >                           ",
"        % .   O , 5 , X ; , o V M j r.8.N B b e | | | b e B 6 C %.a q i.o                           ",
"        O %   O & , & , { [ ; 7 y ! r.#.S 9 r B u u 3.B r | 6 T ) M l l O $ o O %               #   ",
"      o :   > O & 4 * , { [ ; : y M &.T i 9 Z 6 N N N ` Z 9 D A _ q y : + X @ > 7               . % ",
"    # o #   7 3 d s , , ; ; l % f U _ A D i p Y C $.C 7.' D u =.6.0 H   # X 4 $ #                   ",
"% %           > d s d & O . k O O a ~ S S Y w. .I o.I ^ *.A ' S C a o   % 1 d - O $           $     ",
"2 =             2 2 = + $       O m @.` Y 5.&.q a 0 a } &.5.T 6 X.m     2 9.,.2 + $           $     ",
"% #               #           $ 2 t T ~ I e.U M M P V M U e.^ C T t O % 2 s s 2 . O $ #             ",
"                  # #         % 1 I ^ (   H l P ! V V k l 2.p.&.+._ & $ . 2 * . & + $ O $   o 7     ",
"                  # #           2 8 >       $ X 4 , ! < w w h w w j & $ O O @ + X X + + $ $ . :     ",
"                  # # # #       # # #         @ , w z z h < h x $ @ @ . 7 $ $ O X , R * = O   . o   ",
"                      % %                     O 4 < < < v 0.1.x   $ $   #     = * , s 9.1 O   3 f   ",
"                              % #             O 4 < W ] v 0.1.w O           2 d s d -.:.d = #       ",
"                            = 1 1 %           + 4 < W W v <.<.h @ $         2 y.:.1 1 1 * % $       ",
"            # #             2 s s %           O X 5 W < < 1.] w @ $         % 1 d = % O O #         ",
"              %             % 2 2 #     o %   $ * ,.:.; w h w @ @ #             % # # + O           ",
"                              # #       . % O X * -.,., & & @ O O O O #       # % O + $ O #         ",
"      #                       % %         $ @ X - R R & & @ $   $ @ X +       o 8 . O $ O #         ",
"      %     % o                 # % % #   $ + + @ X & & & @ O $ O @ O O       # %                   ",
"        o > # > #       H f % # % 1 1 %       O X @ X & X O #   + & o H %                       $ $ ",
"        O .             3 > # # % 1 1 %       # O O O + + % %   O @ O 3 %                     = R * "
};
