/* XPM */
static char *_ded5b8c5c174603fb93bb4dc4ec9d60AnP2DQptbFciiVZ6[] = {
/* columns rows colors chars-per-pixel */
"50 50 213 2 ",
"   c #010203",
".  c #0A0201",
"X  c #01050A",
"o  c #0B060A",
"O  c #03090E",
"+  c #0C0A0D",
"@  c #000613",
"#  c #040C13",
"$  c #000719",
"%  c #020D19",
"&  c #0C0F16",
"*  c #051117",
"=  c #0F1216",
"-  c #05131B",
";  c #09151D",
":  c #06191E",
">  c #091A1F",
",  c #141C1F",
"<  c #000E21",
"1  c #031523",
"2  c #0A1721",
"3  c #061A23",
"4  c #0A1B24",
"5  c #051D2C",
"6  c #0B1E2B",
"7  c #00122C",
"8  c #001D31",
"9  c #0D212C",
"0  c #0B2025",
"q  c #192225",
"w  c #13242C",
"e  c #1D242E",
"r  c #0D2432",
"t  c #0D2936",
"y  c #05263B",
"u  c #0D2639",
"i  c #0D293A",
"p  c #032234",
"a  c #122534",
"s  c #122836",
"d  c #12273F",
"f  c #132C3C",
"g  c #1B2D3D",
"h  c #192A31",
"j  c #15313F",
"k  c #1B313E",
"l  c #202020",
"z  c #202D33",
"x  c #28373B",
"c  c #0E2E42",
"v  c #022E4B",
"b  c #142E42",
"n  c #0E3145",
"m  c #0E334A",
"M  c #143144",
"N  c #193445",
"B  c #13354B",
"V  c #1A364A",
"C  c #16394D",
"Z  c #1A3A4D",
"A  c #1C3947",
"S  c #0D3A57",
"D  c #123751",
"F  c #153A53",
"G  c #1B3D54",
"H  c #163F5A",
"J  c #1A3F59",
"K  c #233C4B",
"L  c #263A44",
"P  c #223E54",
"I  c #2A3C50",
"U  c #0F415A",
"Y  c #1D4156",
"T  c #14425D",
"R  c #1C425C",
"E  c #1D485E",
"W  c #2F4047",
"Q  c #20404D",
"!  c #29404E",
"~  c #314047",
"^  c #33454D",
"/  c #234155",
"(  c #2C4554",
")  c #2D4956",
"_  c #22455C",
"`  c #2A465B",
"'  c #24495E",
"]  c #2C4A5C",
"[  c #314652",
"{  c #304956",
"}  c #334C5C",
"|  c #394C5C",
" . c #0F4B6F",
".. c #154563",
"X. c #1C4662",
"o. c #1D4A65",
"O. c #1C4769",
"+. c #174C6D",
"@. c #1D4C6B",
"#. c #1B506F",
"$. c #1B4F71",
"%. c #154F74",
"&. c #155176",
"*. c #1E5273",
"=. c #1D557A",
"-. c #1F597D",
";. c #224662",
":. c #244A64",
">. c #2A4D64",
",. c #234D6B",
"<. c #2A4D6A",
"1. c #264667",
"2. c #334D61",
"3. c #3B4E61",
"4. c #314E6C",
"5. c #2C5166",
"6. c #24516D",
"7. c #2A526C",
"8. c #2B586F",
"9. c #335164",
"0. c #3A5465",
"q. c #33546B",
"w. c #39566A",
"e. c #34586D",
"r. c #3B5A6D",
"t. c #375965",
"y. c #234F71",
"u. c #2A4E70",
"i. c #245373",
"p. c #2B5573",
"a. c #2D5A74",
"s. c #23567B",
"d. c #2B5579",
"f. c #24597C",
"g. c #2C5B7C",
"h. c #275974",
"j. c #325572",
"k. c #335A73",
"l. c #3B5C73",
"z. c #315E7E",
"x. c #335C7B",
"c. c #2B617D",
"v. c #3D6274",
"b. c #34617C",
"n. c #3F637A",
"m. c #38687F",
"M. c #376074",
"N. c #435056",
"B. c #415B69",
"V. c #415D72",
"C. c #406075",
"Z. c #44667C",
"A. c #506D7F",
"S. c #1C5B81",
"D. c #245D82",
"F. c #295C82",
"G. c #2E5F88",
"H. c #1D628B",
"J. c #256185",
"K. c #2D6285",
"L. c #24648C",
"P. c #2B658B",
"I. c #2C698D",
"U. c #336383",
"Y. c #3B6482",
"T. c #336A87",
"R. c #32668A",
"E. c #34698A",
"W. c #3E6C8D",
"Q. c #396787",
"!. c #2A6790",
"~. c #2B6C94",
"^. c #276E98",
"/. c #286D98",
"(. c #336D93",
"). c #306F98",
"_. c #3A6C91",
"`. c #2D739C",
"'. c #347296",
"]. c #3C7496",
"[. c #33749B",
"{. c #3B7A99",
"}. c #2A75A4",
"|. c #2E7FAA",
" X c #347AA4",
".X c #3B7CA5",
"XX c #357DAA",
"oX c #387FA9",
"OX c #3275A0",
"+X c #436983",
"@X c #446B88",
"#X c #427088",
"$X c #406E92",
"%X c #477B97",
"&X c #537C98",
"*X c #3481AB",
"=X c #3A83AC",
"-X c #3685B2",
";X c #3A86B2",
":X c #3D89B4",
">X c #3D8CBB",
",X c #4C85A9",
"<X c #4C85A8",
"1X c #558BAD",
"2X c #4486B0",
"3X c #438AB4",
"4X c #418DBB",
"5X c #4E8DB6",
"6X c #4491BD",
"7X c #4594C2",
"8X c #4896C6",
"9X c #5298C3",
"0X c #5797C1",
/* pixels */
". .     X % @ < l.@X$XR.R.U.a.8.z.Y.z.h.p.a.p.7.7.7.<.<.>.<.9.q.` / _ >.<.n 1 - 3 X X X     . .     ",
". .     w L f M l.Y.Q.U.R.E.b.p.d.z.z.a.p.p.p.6.7.<.:.<.>.' ` ` ( ` _ ;.j.l.r.B.} - a X # l . .     ",
". . X [ } w.w.q.e.l.Y.z.K.Q.U.a.6.p.p.p.,.6.,.:.;._ _ _ ` _ / G Z G R 7.x.j.>.9.9.{ 5 @ X ,   . . . ",
"    @ $ 8 +XZ.5.q.j.x.d.i.g.U.g.o.,.,.:.:.:.;.;.R R R R Y G F C G / :.k.x.7._ ] w.0.9.6 k X o       ",
"X X 8 v W.U.Y.k.5.q.q.7.6.h.g.h.,.:.;.X.X.;.R R R R _ _ R F C n M / >.,.,.,.:.' 9.l.r.r.w.1 X X X   ",
"$ 8 &X<X,X(.E.x.e.5.5.7.i.i.#...6.;.R R R R J J R R :.>.:.R C c c C >.p.i.o.R F :._ k.q.r.` $ % X X ",
"7 %X1X,X2X~.f.g.k.7.,.7.h.@...T :.R J J J F F F F F R ;.:.;.F C c c J ,.,.X.F F R <.:.:.k.r.] N $ g ",
"v ,X0X9X;X/.P.i.i.6.,.i.i.o.T X.R H F F F F F F F C D R :.;.R F y i n F H X.R n F F ,.,.7.k.9.w.2.r.",
"5X0X9X9X:XoXJ.s.*.i.i.i.i.6.:.E :.:.;.R J J _ :.:.J D D J X.X.J c i B F F R R B B F o.6.p.a.<.>.>.q.",
"3X6X7X6X:X=XP.f.*.i.f.s.i.o.' _ _ _ R J J G _ ` _ G J J D F R _ N f M F J Y Y G F J o.,.,.6.>.<.<.5.",
"XX>X4X>X;X*XL.=.*.s.s.=.@.:.' ` Y Y J G Z Z Z Z P Z F B C F R J Z j c C J Y ` >.G R ,.i.i.,.X.:.<.5.",
"XX4X7X>X:X=X[.I.K.J.f.*.@.:.` / C C C B M M b b N b b M B G J B Z N c n G G / 9./ _ 7.i.i.i.:.;.<.<.",
"/. X:X;X>X6X2X.X(.E.K.i.o.J C N i c f i t t s s a r f M b N C V A K B c B B B / ` :.6.o.@.a.6.;.<.' ",
"J.~.=X;X7X7X=X'.K.U.g.i.R D M M i t t r 6 6 6 6 6 6 a s s f N V N Q C n n B M V ` <.7.o.*.z.a.:.>._ ",
"T.].3X4X8X>X}.L.s.i.,.X.F C B M i t r 6 4 3 ; ; 4 ; 2 4 9 s f f f V C m m n b M G _ 6.@.i.Q.b.p.,.;.",
"E.{.3X;X-X}./.L.g.6.R D B B b i r 6 4 3 ; - % # # # % ; 4 9 a r t N C B n c i i C R o.o.i.U.E.Q.x.p.",
"{.{.[.`.`.H.S.D.i.o.F M b f s 9 4 2 ; * # # X X O O # # * ; 4 w s f M N M i u i C R R T $.K.E.R.U.d.",
"I.'.[.~.I.P.D.s.i.R B M g a 6 4 ; * # # O X X X X X X O # - 2 4 r t M N N f i i B F T o.h.I.(.'.R.U.",
"g.R.(.P.J.I.K.$.,.J B N f 9 4 2 % # # X X X X X   X X X O # - 2 6 r f k k f f b F F T @.J.I.[..X(.I.",
"h.i.g.g.f.F.s.o.X.J V f s 4 3 ; * # O X X X           X X O # ; 4 9 s f f f M Z F D S +.J.~.[.oXoX[.",
"u.O.O.i.i.i.,.X.J G A s 9 2 ; - # # X X               X X X # * 3 6 r a r s N P G H ..$.I. XoX=X3X=X",
"<.1.1.,.y.p.,.R G P N r 3 2 : * # O X                     X X # - 3 9 a r t N / _ o.@.=.~.=X=X*X;X:X",
"1.<.<.<.p.<.:.R G Z f 9 3 > ; * O X X                       X # * 3 9 w r t M G R o.$.=./.*X-X|.-X:X",
"1.<.<.p.j.>.J J / N s 4 2 > * # O X X           .           X O - : 0 9 r i M F X.,.*.S.`.:X6X>X-X*X",
"<.>.:.7.p.,.R G G M r 4 2 > ; # O O X         .             X O * : 4 9 r i c F X.s.D.L./.3X7X7X4XXX",
"8.a.a.a.6.o.R R G M r 4 2 ; * # O O X X       .           X O # * > 4 6 r i M D o.F.P.!.`.;X:X=X X`.",
"a.a.a.a.6.o.R R G M r 6 4 2 * % O O X X                   X O # * > 4 3 r c m F i.R.(.!.[.XX X^.L.P.",
"a.a.a.8.6.6.o.R Y N s 6 4 4 ; % # # O X X     .       X X X # # * 2 4 5 r c D ..K.R.I.L.[.OX`.L.P.P.",
"p.a.a.a.a.6.o.R Y V f 9 6 6 3 - % # # X X X X   X X X X X X # - ; 2 6 r i n H i.R.K.D.S.).[.~.J.D.s.",
"7.7.a.b.d.6.X.R Y V f r r 6 6 3 * # # O X X X X X X X X X O # * ; 2 6 u n C X.g.K.-.=.D.(.(.!.f.g.i.",
"7.7.a.b.z.6.R R _ G M f r r 6 6 ; - # # # O O O X X O O # # * ; 2 6 9 f B R 6.K.K.&.&.I.'.(.P.=.i.i.",
"p.<.7.x.Y.i.X.R _ Y C b i t r 9 4 2 * * # # # O # # # # * - ; 4 6 a f B R 6.g.R.J. .%.(.(.(.F.*.@.i.",
"<.<.x.x.g.g.@.U X.R Y n M u d r 6 4 3 ; ; * * # # # # - - 3 6 r s b Z X.i.f.J.!.P.-.f.R.R.K.F.s.i.h.",
"4.<.j.x.d.g.6.T o.E R B M u d u r 9 9 4 4 2 ; ; ; 2 6 9 9 r f b V G X.i.D.L.L.~.I.E.U.g.o.O.y.s.g.E.",
"j.>.:.6.i.g.p.o.:.' R C M i b b i s s r 9 9 6 4 4 6 a s f b N C J X.o.*.D.D.L.(.(.E.g.o.T R ,.h.U.].",
"q._ R R ,.d.d.6.7.:._ G B c M Z M M f f s s a 9 s r t f V G / R X.o.@.$.=.D.P.(.I.f.@.o.:.R ;.7.y.f.",
">.Y J R X.p.p.,.<.>._ _ C M n B C C N b f M j f M f b M C G R X.X.@.@.+.$.=.D.G.D.f.i.y.:.R G _ i.g.",
"/ Z Y R o.p.p.,.,.O.;._ R C n n F G C M M B V N V C G G F D R o...@.@.@.i.i.i.s.=.s.s.$.o.R J Y ;.7.",
"/ Z _ _ o.i.g.d.@.X.:.R :.H F C C J G C n C G G Y _ ;.;.o.R o.,.@.i.p.p.8.p.p.d.s.s.s.f.s.i.:._ 9.) ",
"/ Z _ R X.i.U.R.f.*.6.X.,.R R F C R _ F m C J R R R R o.,.,.@.@.6.p.7.<.>.:.>.,.g.s.G._.Q.a.7.] [ - ",
"I 2.] 5.i.i.R.K.D.R.i.h.Y.X.H H J D R ;.R D D R H o.:.,.6.6.6.i.a.6.5.:.` P _ ;.d.g.$XW.Y.k.e.) z X ",
"| 3.0.q.p.d.K.K.E.%XR.U.g.i.,.O.<.F R R R :.R H R ;.,.,.,.o.o.@.@.X.R R / C G R <.x.Y.+Xl.c 0.L O   ",
"$ a 0.V.n.p.h.c.T.%X%XU.O.,.p.p.<.5.<._ ;.R ;.;.X.:.6.7.6.:.o.o.@...X.;._ J G _ P e.V.9.1 @ # X     ",
"X @ g K 2.' 7.a.#Xm.b.a.p.,.i.Y.q.' e.5.<._ >.R R ;.:.7.8.7.:.:.i.6.6.7.:._ / ` 2.5 $ X X O         ",
"    X # 9 r } r.r.v.n.;.k.k.7.k.y < B C.9.e.<.R R R R R >.:._ _ 7.7.8.7.;._ ` / [ L X X O           ",
"        X X 3 6 6 ! 9.c 5.l.k.8.9./ 1 l.l.>.9.<.:._ J G ` ` _ ` >.5.5.:._ ` ` ( ^ N.X       +       ",
"            X X X X @ 1 ] v.M.e.p } 5 A.Z.1 / 9.>.>.` ` >.] ` ] } } } ] ` ] ` ( W q o   +           ",
"    .         +   X X X k t.t.V - @ % | B.$ ( P ] ] >.9.q.>.] } 3.} ) ) ( ( ( ( ^ ,                 ",
"        o + o +         x x h w & = q # q X X 2 a ( w.>.e.>.9.2.9.} ] { ) { } ) [ ~ X               ",
"          .             =       o o +   o   X e $ s ] ] e.5.2.] >.] ( ( ( { ] ( | ^ X   .       + o "
};
