/* XPM */
static char *_e14f5a216fb459489697834fe4d3a9chXAqlGelaSG7STdM[] = {
/* columns rows colors chars-per-pixel */
"50 50 256 2 ",
"   c black",
".  c #05030A",
"X  c #6A4971",
"o  c gray2",
"O  c #FFF4CE",
"+  c #FFF5CC",
"@  c #020104",
"#  c #000001",
"$  c #010102",
"%  c #040202",
"&  c #FF763C",
"*  c gray3",
"=  c #040207",
"-  c #FFF6CF",
";  c #0B0A0B",
":  c #FF6060",
">  c #FFF3CC",
",  c #090612",
"<  c #161414",
"1  c #07040E",
"2  c #080303",
"3  c #0D0606",
"4  c #100B16",
"5  c #140B1C",
"6  c #120B23",
"7  c #FEF1CB",
"8  c #916599",
"9  c #FDE4BC",
"0  c #0E0D0E",
"q  c #FFF1C5",
"w  c #0A0717",
"e  c #1D1A19",
"r  c #FC7C43",
"t  c #FB854C",
"y  c #C68CD3",
"u  c #0E060F",
"i  c #131110",
"p  c #1A1719",
"a  c #FB8047",
"s  c #CEBE8C",
"d  c #1C1713",
"f  c #FD753C",
"g  c #F9945F",
"h  c #23162E",
"j  c #FDDDB7",
"k  c #FAEEC9",
"l  c #FA8D57",
"z  c #FFF4D0",
"x  c #312313",
"c  c #180B0D",
"v  c #1C1121",
"b  c #1C1738",
"n  c #1D1012",
"m  c #282320",
"M  c #FEB53F",
"N  c #FFF7D1",
"B  c #F6EBC7",
"V  c #7A5681",
"C  c #8C6295",
"Z  c #D0C18F",
"A  c #FDE4A7",
"S  c #F3E7C5",
"D  c #C38AD0",
"F  c #1B122D",
"G  c #120B09",
"H  c #443D35",
"J  c #FC7752",
"K  c #FEEABF",
"L  c #FEEAC4",
"P  c #685D4D",
"I  c #FAC092",
"U  c #A09279",
"Y  c #74527B",
"T  c #FCD9AE",
"R  c #FDDFBE",
"E  c #D0A879",
"W  c #F9AF7B",
"Q  c #B882C4",
"!  c #321E1F",
"~  c #222020",
"^  c #4C3963",
"/  c #B5A58E",
"(  c #FAD1A5",
")  c #756653",
"_  c #866090",
"`  c #FEEEC7",
"'  c #9E708C",
"]  c #FDDD96",
"[  c #F7A976",
"{  c #FBA847",
"}  c #FDE7B0",
"|  c #796D5F",
" . c #C0B28B",
".. c #FCCD77",
"X. c #34302E",
"o. c #FDD78A",
"O. c #AE9FB0",
"+. c #E58C4B",
"@. c #FC783F",
"#. c #BAA983",
"$. c #FEFDFE",
"%. c #CABB8D",
"&. c #5E574D",
"*. c #D8CA9C",
"=. c #654E4E",
"-. c #695F5B",
";. c #564844",
":. c #877B6C",
">. c #664A32",
",. c #A69A86",
"<. c #9A8B70",
"1. c #FE615E",
"2. c #291C14",
"3. c #332621",
"4. c #FBBD5B",
"5. c #E4D8B8",
"6. c #674A6B",
"7. c #D5884F",
"8. c #FC6759",
"9. c #EB955F",
"0. c #D5BB84",
"q. c #7F5787",
"w. c #724F6A",
"e. c #3C352D",
"r. c #8F8168",
"t. c #AE9C7A",
"y. c #FCBA4D",
"u. c #2C1C2C",
"i. c #272452",
"p. c #EAA83E",
"a. c #5E4576",
"s. c #D7C8AB",
"d. c #F89D69",
"f. c #271C41",
"g. c #806486",
"h. c #E4D1A9",
"j. c #FBC799",
"k. c #FBCB9F",
"l. c #F1D8B3",
"z. c #6F4D75",
"x. c #81766A",
"c. c #A6783C",
"v. c #4E3C45",
"b. c #F6E8C1",
"n. c #A6715A",
"m. c #C3B7C5",
"M. c #73542F",
"N. c #CEB788",
"B. c #FEEBB8",
"V. c #7B5566",
"C. c #BF9079",
"Z. c #AE7C7E",
"A. c #F9A26F",
"S. c #A67589",
"D. c #423842",
"F. c #DBAE7B",
"G. c #C9B289",
"H. c #B4847C",
"J. c #9F6EA3",
"K. c #F68781",
"L. c #796D72",
"P. c #9E7252",
"I. c #E3DBE3",
"U. c #F18852",
"Y. c #D9BA7F",
"T. c #FABA8A",
"R. c #FCD3B6",
"E. c #B3813E",
"W. c #412D26",
"Q. c #9A6760",
"!. c #1E184A",
"~. c #EEE1BF",
"^. c #CCC0A6",
"/. c #FBC46C",
"(. c #4B453B",
"). c #C6B89D",
"_. c #FBB150",
"`. c #CFA3D9",
"'. c #C08ACB",
"]. c #FC6E56",
"[. c #E1A36F",
"{. c #F5985F",
"}. c #9A6CA3",
"|. c #F99389",
" X c #948779",
".X c #FC9941",
"XX c #FB9147",
"oX c #D4B075",
"OX c #916462",
"+X c #3D2837",
"@X c #EFB04C",
"#X c #D6B681",
"$X c #AA77B4",
"%X c #FCC461",
"&X c #F57B78",
"*X c #F0904F",
"=X c #F9B09E",
"-X c #875C5A",
";X c #A396A4",
":X c #AA77A7",
">X c #B68267",
",X c #96856A",
"<X c #412C4F",
"1X c #EEB19F",
"2X c #F57270",
"3X c #5A4120",
"4X c #392744",
"5X c #AB464B",
"6X c #D09744",
"7X c #2D2624",
"8X c #554D5B",
"9X c #D3C3D6",
"0X c #F4B03E",
"qX c #523B26",
"wX c #8E6639",
"eX c #524A6F",
"rX c #CC933C",
"tX c #E3BC89",
"yX c #9A7AA1",
"uX c #F9F4FA",
"iX c #845E30",
"pX c #E0D3B3",
"aX c #BB7C59",
"sX c #FABE8B",
"dX c #F9B983",
"fX c #DDB270",
"gX c #D7C192",
"hX c #A9806E",
"jX c #B88A6D",
"kX c #EBE1ED",
"lX c #F47943",
"zX c #534E51",
"xX c #B07E58",
"cX c #BBB3B2",
"vX c #42303B",
"bX c #694F84",
"nX c #784247",
"mX c #DB5E61",
"MX c #E9BB66",
"NX c #403A7B",
"BX c #A98E6B",
"VX c #9B6F36",
"CX c #E49863",
"ZX c #C38D66",
"AX c #F69352",
"SX c #B17FBC",
"DX c #D39F4D",
"FX c #C59686",
"GX c #744846",
"HX c #8E898C",
"JX c #F2EEF1",
"KX c #D9AB72",
"LX c #757800",
"PX c #00000A",
"IX c #000371",
"UX c #054905",
/* pixels */
"                              $ 4 d 2.x x x x d % p e m e $ # #         #     % *       $           ",
"                            $ PX;.P.xX>X>X>XxXP.M.,XU t.r.o     #       $ $   * p   @ #   e *       ",
"                $ $ $ o     G >.n.Z.' J.:X:X:XS.C.KXY.Z #.e.@ 4 =   % $ $ $   ; p . = . @ < o       ",
"                $ $   * o < >.hX' 8 $XQ D D D Q J.Z.E 0.%.P . v u   $       * h 6 6 , 1 =       #   ",
"                    e X.P BXjX' 8 J.'.y y y y y SX8 S.E s | # . @           @ 4 ^ a.h , @   $ o     ",
"    # # . u . #   e.U  .s E S.8 8 }.'.`.`.y y y D J.8 H.#X<.d               $ , ^ bXh 1 @ # % *     ",
"      @ h <Xh =   | Z s 0.C.8 8 C yXI.uXkX`.D D Q }.8 ' E #.H           < m . 1 4 F w . = #         ",
"      PXu.a.4X=   P %.s oXZ.8 C V O.$.$.$.9X}.C V V C 8 C.N.(.          d 7X, , ; 1 1 w 1           ",
"      # u v 4 $   ;. .Z E ' C q.z.O.uX$.$.O.Y q._ _ q._ H.0.) * *         o 0 4 < . . , =           ",
"      % 0 % $ $ @ e t.Z E ' _ Y X g.m.I.m.yX$XQ '.Q C V H.Y.U e o     $ % o $ ; < . = 1 $     ; 0   ",
"      $ o       * * r.s E S.V X X X V g.Y C y y y D 8 Y H.0.#.m o       $ # @ * * $ $ .       o o   ",
"                ~ ~ ) %.#XZ.z.X X Y O.;Xz.V SXD Q $Xq.w.ZXF.G.3.          $ 4 p = #   #   # = 1 PX# ",
"          # @ $     e. .0.C.w.6.X V 9Xm.Y X q.8 _ Y X OX+.U.[.P %         $ @ $ #         $ w i.b PX",
"      # $ u h 5 @ 0 < t.s oXOX6.X z.g.g.X X X X X X w.aX{.@.d.h./ U :.=.! 2 %             # 6 i.b PX",
"        @ h _ 4X. @ 0 <.s fX7.-X6.X X X X X X X X w.n.9.T.a l j N > k 1XmX5XnXm *           PXw 1 $ ",
"        @ v <Xh o   o P N.9.a 7.Q.w.6.X X X X X V.n.+.dXT l r I O > > R |.2X1X^.x.<           # $ $ ",
"    ; * $ = 1 = #     X.G.9.@.t +.aXOXV.V.V.-Xn.7.*X[ 9 L A.f A.L > > > R R.L + B / H 2     #       ",
"    o %             % (.pXW @.g [ AX+.+.7.7.+.*X{.sX9 z 7 T.@.l j O > > + + > > > > tXE.3X$ @ o     ",
"                  < x.pX7 I @.g T T sXW W W dXj.T B.} } q ( t r j.O O O O > > > > > ] M rXx @ <     ",
"                n Q.~.+ > k.a t ( z q } A ] o.....%X4.4.A 9 g f [ S S S B B k 7 > > o.M p.>.%       ",
"$             n 5X&XR.> > T t @.I O A %Xy.y.M { { .X.X{ ] ` W f U.hX| |  X-.(.:.U / MXM p.3X$       ",
"#   $       i Q.2XK.j > > 9 g @.W 7 } y..Xt J J ].8.8.XXo.> j.a lX-X+XvXL.X.  * ; i wX6Xc.x         ",
"0 e $       -.l.R.R 7 > > ` A.f A.` K %Xt 8.1.: : : 1.t ..q 9 g r P.vXv.O.zX        3 3.% $         ",
"i ~       m ).O O > > > O O T.f g K q ..XX8.1.: : : : J /.q 7 T.*XjX=.L.I.;XD.o                     ",
"          P S O O > > 7 5.^.tXr l 9 > o.{ ].: : : : : ].4.B.z 9 0.G.cXI.$.JXm.-.$                   ",
"o *     = r.> > O > pX XH e t.U.l j z A _.J : : 1.1.1.8.{ A O B *. .x.HXkXcXX.;                     ",
"* 0   % qXY.q O S ,.(.o # o r.[.[ 9 z } 4.t J J J t t XX_.] > k *.%.&.p ;XzX                        ",
"%     G E.y.o.l.:.<   # # o ) N.gXb.> K /.{ { _.4./.....] B.> ` *.%.,X~ L.X.                        ",
"* %   G c.M M @X>.h 4 . o   7X .Z 5.> q A ] A } B.K q q 7 O O ` *.s U e 0 *                         ",
"$     o M.p.M 0XP.^ h 5 p   d t.s h.7 > > > > > > > > > - O 9 I 9.F.#.e                             ",
"        i iX6XVXW.F 6 , 6 5 ; ) s *.k O O O O O O O > ` j I d.a @.CXG.H $                           ",
"        @ G x n 4 6 w 5 ^ a.5 H %.gX( j 9 9 K 9 j ( I [ l r f & f 9.N.) o $ ; o %               $   ",
"      * i   * i ;.u., 5 ^ a.6 e.#.F.U.l g g g l t a r @.f & & & r [.s :.; , . ; e             # o % ",
"    $ * $   e < p u.5 5 v v D.d ,XF.lX& & & & & & & & & & & & a W h.Z <.* , 5 @ $                   ",
"% %           0 n ! 5 , = o X.# P #X{.r & & & & & & & & f a d.j.L b.*.<.; c v . = $         # #     ",
"3 %             2 3 2 = $       ;.%.T I d.l a r r r t g [ k.K O - B ,.m 3 =.v.3 = @         # $     ",
"% $               $         # # 3.#.k z L j ( j.j.k.T K > O O O O 7 | @ 3 ! ! 3 * = # #       #     ",
"#               # $           % c <.k O O O O O - - k ~.5.S > > > + / d = 3 u = , = @ @ $   * e     ",
"                  $             3 | B > > > O k s.,.L.8Xv.,.7 > > + s.~ $ @ . = , 1 . = @ $ o i     ",
"                  $   $ $       $ -.S > > > - ^.D.F F 6 6 8X~.- > > ~.H p # $ @ , 5 4 u 2 @   o *   ",
"                      $ $       $ -.S > > > O  Xv F b b !.eXs.N > > k x.o     2 u 5 u.;.c o   < p   ",
"                              % % &.S > > O B &.w b f.i.!.^  .- 7 L ` U o   % 2.! v +X=.n o $       ",
"                            2 c G m 5.R R > S &.w b f.f.!.NXO.b.=XK.=X/ *   2 W.=.c c c u @ $       ",
"            $ $             2 3.! i FX&XK.j B &.PXh f.b b i.eXs.|.&X=X).; # % c n 2 % = @ $       # ",
"              %             % 3 3 2 GXK.|.R 7 r.n D.6.v 6 F 6 :.l.R 7 ).*       % $ # = = #         ",
"                                $   e / L > q oX3.+Xv.5 w , . p &.s.A fXW.    $ @ @ . @ = #         ",
"      $                       $ $   $ e.,.l.o.DXx u 4 w , 1 @   # >.@X0XM.    * ~ * @ $ @ #       # ",
"      %     $ ;                 $ 2 % $ * c.y.rX2.1 , w , . @ $ @ d c.p.M.    $ $                 # ",
"        * ; $ 0 $       m p $ # % n n % % iX@XE.e . , w , = #   = , x ) 2.                    # @ @ ",
"        o o             < 0 $ # % G G %   2.wXqX= = @ . = @ % # @ . $ 4 #                     = u u "
};
