/* XPM */
static char *_4f85e4faf90456ff67283750786f6e2G3VBazXuOnR219sH[] = {
/* columns rows colors chars-per-pixel */
"50 50 153 2 ",
"   c #010102",
".  c #0A0204",
"X  c #040905",
"o  c #090A06",
"O  c #04030A",
"+  c #0A050C",
"@  c #06090A",
"#  c #0B0A0B",
"$  c #120306",
"%  c #130709",
"&  c #1A050C",
"*  c #130B0D",
"=  c #1D080D",
"-  c #0E110A",
";  c #18100E",
":  c #030212",
">  c #0A0414",
",  c #040814",
"<  c #0B0A13",
"1  c #04021A",
"2  c #0C041C",
"3  c #0D0B1B",
"4  c #120417",
"5  c #130C13",
"6  c #190D13",
"7  c #12051A",
"8  c #12091C",
"9  c #1A0E1A",
"0  c #131313",
"q  c #1B1313",
"w  c #161815",
"e  c #15151A",
"r  c #19141B",
"t  c #171B1E",
"y  c #1D1D1D",
"u  c #221411",
"i  c #24181A",
"p  c #281C1C",
"a  c #22231E",
"s  c #050423",
"d  c #0D0522",
"f  c #0C0A24",
"g  c #0E0929",
"h  c #140622",
"j  c #130C24",
"k  c #1C0F25",
"l  c #100F2E",
"z  c #1A0B2A",
"x  c #171626",
"c  c #1B1221",
"v  c #1E1C21",
"b  c #15112B",
"n  c #1C142C",
"m  c #1D182F",
"M  c #0F0E30",
"N  c #120D33",
"B  c #1F0E30",
"V  c #131132",
"C  c #1E1335",
"Z  c #1C1831",
"A  c #1E1738",
"S  c #221727",
"D  c #2B1C22",
"F  c #22142C",
"G  c #24192A",
"H  c #271A2C",
"J  c #211430",
"K  c #201533",
"L  c #201C35",
"P  c #241B33",
"I  c #2C1A34",
"U  c #21153B",
"Y  c #2B1239",
"T  c #20193B",
"R  c #252523",
"E  c #272727",
"W  c #222223",
"Q  c #2C2627",
"!  c #2B2C27",
"~  c #262628",
"^  c #22222C",
"/  c #2D222A",
"(  c #2C2C2C",
")  c #332525",
"_  c #2C302F",
"`  c #31233A",
"'  c #37283F",
"]  c #323431",
"[  c #3D3334",
"{  c #3A3A3A",
"}  c #412D36",
"|  c #413134",
" . c #443339",
".. c #181242",
"X. c #1F1D42",
"o. c #1E1A4D",
"O. c #261D43",
"+. c #281C42",
"@. c #20194C",
"#. c #292546",
"$. c #272348",
"%. c #26244B",
"&. c #26234E",
"*. c #2F294B",
"=. c #3B2B45",
"-. c #342449",
";. c #3C3847",
":. c #2C2654",
">. c #2F2D54",
",. c #2C275D",
"<. c #2F2959",
"1. c #3B2053",
"2. c #3A2B52",
"3. c #323057",
"4. c #3B3956",
"5. c #3D3C5E",
"6. c #2F2965",
"7. c #312B73",
"8. c #3B3871",
"9. c #3F397F",
"0. c #422F4F",
"q. c #43304E",
"w. c #402F59",
"e. c #493550",
"r. c #4F3967",
"t. c #434446",
"y. c #484848",
"u. c #524346",
"i. c #4C4654",
"p. c #574251",
"a. c #614F5B",
"s. c #6B5B5D",
"d. c #5A4C66",
"f. c #57406A",
"g. c #574574",
"h. c #594472",
"j. c #634A74",
"k. c #6B567F",
"l. c #765C7F",
"z. c #776267",
"x. c #736268",
"c. c #746174",
"v. c #443D81",
"b. c #4E4681",
"n. c #645284",
"m. c #6D5C88",
"M. c #6E5E8F",
"N. c #765F89",
"B. c #615C92",
"V. c #776686",
"C. c #7B629B",
"Z. c #836D94",
"A. c #95859F",
/* pixels */
"              O                 e o           O   y                 O     O   X                     ",
"                              O ;.5         X   X {     O                     # a X       R +       ",
"                      X     O < 2 j 2   +       X     X     + < X   X X X     0 v   @     y +       ",
"                    X o       < F w.2.>           w ]   X O + v #           # v 2 h > O X           ",
"        O O                   + 4 m.M.j                     O O       X       + h.k.z >       @     ",
"        + 4 +                 + 9 J +.j O   + O   X   #         X               j.N.B >   X   #     ",
"      O k e.H                 X +   O > >           X                       > O > k > O O           ",
"      O I l.=.O                 O       : > +     # y                       < > # O > 3 #           ",
"  X     + r #             O             O h f.1.                #           # e 0   : >             ",
"X       0   X                 X         O S V.Z.# X             o       X # + # y + O <       - 0   ",
"      X   X     #     +                 O O G F #               #             # #       O O     X   ",
"  #             ! ~ O         @   X     O   O O                           X 0 v               O O   ",
"      X       O                   X                             X                           f >.L : ",
"  X       < S 8   0 #   O     X X X       X                                                 j <.Z : ",
"      X O S A.0.        : 1 O       X X                                     # X             O 1 O O ",
"          k 0.Y O     < #.$.3   X                                           X                       ",
"    # #               O %.X.O       0 E                                                             ",
"  X   X     O     O     O O   X     X 0                                                       X     ",
"                  O     + +   O X                                                         X # 0     ",
"                  O @ : s 2 O + W 0                                                           X     ",
"              + k F 8 d B.&.O   y #                                                                 ",
"  X           0 C.g.: b &.V                                                                         ",
"5 y         O 5 r.-.O + : O       X                                       X X                       ",
"0 (           O . + W   O     O   #                                       # #                       ",
"  X                 0             #         X     O       X : N M :           X                     ",
"X #                     # +                           #     : 4.4.x #                               ",
"# # X X X         X X         + O   X                     X O 3 1 ^ R                               ",
"                +         X O       X X           # 0 X       O >       X                           ",
"X X             c ` 2 < #             O                           +     X     X                     ",
"                ' d.n j c           X * #     X X   X     X X           X   X                       ",
"          X   X d m > 7 h 2 +               # E 0                 O                                 ",
"          X     s 3 # 4 g.n.h .         X     y #   X       O               #                       ",
"      # 0   #   2 5 + 8 g.n.7 .         y.#       #     0           X   O <   < W +             X X ",
"      #     y y r / 9 7 d j i.          X           X             #     O O r             X X       ",
"  X         X # u D c 8 O   t.                X       X     X   + <       6 9 + + X                 ",
"#     X         . . +                                       O > <       . s.u..                     ",
"X             X   O           O $ i %             + X + < : m V < O +   . ) D . # X                 ",
"  X                         +   = | 6   O +       @ O 3 2 1 5.3.O < +     . . . < O         # E     ",
"      X     X                 X $ % .       X   < > P m j f l s : O + @     #   < @ O + X   X 0     ",
"  X                                           + 3 j b b b b f 1 O 3     E     O > 3 < O   X     # X ",
"                                          X     3 C U A ..9.8.:           X   . < 5 D s.$   X t y X ",
"                                              . 3 T O.*.o.7.6.f               p D 6  .x.* # X   X   ",
"                            O q 0               3 A O.O.o.v.b.g # X         . [ z.& 6 . 5           ",
"                            # Q Q .             < n P J N ,.:.d               6 u %   +     X       ",
"                  X           % #       0       . p.c.4 j V b O +   O     X             O           ",
"                                        #     < $ } a.+ c O O O     O             X     +   O       ",
"              X               X         X X O + + + + > O <       + + #       X _     X             ",
"      X     X #                 X   X       O O : @ > 3 < O +     + O               O   .           ",
"        # # # #         ( W       q q .         @ + @ < #         < X (   X                     O   ",
"        X X             y 0       ; *             O   + +         +   W                         < < "
};
