/* XPM */
static char *_d89dd227a194067b4b51e33c5701521sbBYXxLfmeMzR9Hj[] = {
/* columns rows colors chars-per-pixel */
"50 50 256 2 ",
"   c #030303",
".  c #0B0303",
"X  c #030A03",
"o  c #0B0A04",
"O  c #04040A",
"+  c #0B040B",
"@  c #040B0B",
"#  c #0B0A0B",
"$  c #130201",
"%  c #1A0200",
"&  c #130B03",
"*  c #1B0C01",
"=  c #12040D",
"-  c #130C0B",
";  c #1A0B0D",
":  c #091107",
">  c #131203",
",  c #13110C",
"<  c #1B120B",
"1  c #1B1305",
"2  c #040311",
"3  c #0C0312",
"4  c #010B12",
"5  c #0C0C12",
"6  c #0E071A",
"7  c #120313",
"8  c #130B12",
"9  c #150A18",
"0  c #0D1115",
"q  c #141312",
"w  c #1C1A13",
"e  c #181616",
"r  c #240501",
"t  c #230B02",
"y  c #2B0A00",
"u  c #280906",
"i  c #370600",
"p  c #271605",
"a  c #381601",
"s  c #261C16",
"d  c #30151C",
"f  c #1D211A",
"g  c #282318",
"h  c #382A19",
"j  c #32230A",
"k  c #261D28",
"l  c #331E23",
"z  c #2A2726",
"x  c #362C2B",
"c  c #393528",
"v  c #393836",
"b  c #342E30",
"n  c #1F2A2C",
"m  c #481A06",
"M  c #49140E",
"N  c #4B2500",
"B  c #573107",
"V  c #48371A",
"C  c #50320D",
"Z  c #672E08",
"A  c #44392C",
"S  c #4C3D33",
"D  c #6F3E2F",
"F  c #3D4132",
"G  c #6F4E1D",
"H  c #4D4738",
"J  c #524639",
"K  c #504E35",
"L  c #734D36",
"P  c #453449",
"I  c #494747",
"U  c #57564E",
"Y  c #555154",
"T  c #724E4F",
"R  c #5E635C",
"E  c #6B6656",
"W  c #7C6C57",
"Q  c #797159",
"!  c #6F6B4C",
"~  c #6B4766",
"^  c #774A65",
"/  c #69516A",
"(  c #6A4972",
")  c #765477",
"_  c #727068",
"`  c #873529",
"'  c #8C522C",
"]  c #89652D",
"[  c #AA742F",
"{  c #925D0D",
"}  c #FA7C2A",
"|  c #E97D34",
" . c #FE753B",
".. c #F87836",
"X. c #F76E39",
"o. c #8A5643",
"O. c #916F52",
"+. c #B57858",
"@. c #AC6F48",
"#. c #917073",
"$. c #B5726D",
"%. c #AB5755",
"&. c #C57957",
"*. c #D47A55",
"=. c #CE7353",
"-. c #EB7945",
";. c #FF7441",
":. c #F57B46",
">. c #E67A55",
",. c #F2725A",
"<. c #CA7863",
"1. c #D97867",
"2. c #F1776D",
"3. c #E57466",
"4. c #BA8B39",
"5. c #EC862B",
"6. c #EE8937",
"7. c #F98737",
"8. c #FA9737",
"9. c #F48F2F",
"0. c #FDAE33",
"q. c #FEAD3B",
"w. c #F7AA37",
"e. c #FEB33C",
"r. c #FFB63B",
"t. c #FAA32F",
"y. c #BA854A",
"u. c #B78A5A",
"i. c #B69054",
"p. c #928B76",
"a. c #A2977A",
"s. c #B2956E",
"d. c #D79759",
"f. c #CF8D4D",
"g. c #E88548",
"h. c #ED9646",
"j. c #FA9845",
"k. c #E88958",
"l. c #E79758",
"z. c #F6834F",
"x. c #DFA658",
"c. c #DCAC55",
"v. c #ECA64B",
"b. c #FEA544",
"n. c #FEAB43",
"m. c #FEAD4C",
"M. c #F4A64A",
"N. c #FFB344",
"B. c #FDB34B",
"V. c #F8B646",
"C. c #E9AA56",
"Z. c #F3AC53",
"A. c #FAAB56",
"S. c #E9B65A",
"D. c #F9B556",
"F. c #EBB146",
"G. c #C89969",
"H. c #D8996C",
"J. c #DA8F7B",
"K. c #E79666",
"L. c #E98F74",
"P. c #D9A568",
"I. c #D3AC6E",
"U. c #E7B764",
"Y. c #F5B568",
"T. c #E7B974",
"R. c #F6B671",
"E. c #EEA969",
"W. c #FBC058",
"Q. c #EAC777",
"!. c #FAC576",
"~. c #F2C56C",
"^. c #7E5486",
"/. c #875D8D",
"(. c #986993",
"). c #8E6F92",
"_. c #B3748E",
"`. c #AB78B0",
"'. c #AE7FC3",
"]. c #979685",
"[. c #9C9D98",
"{. c #B0958D",
"}. c #9FA098",
"|. c #AAA79A",
" X c #B2AC92",
".X c #B587B6",
"XX c #AB83B0",
"oX c #BEACAA",
"OX c #C3B49B",
"+X c #D0AC89",
"@X c #FDB587",
"#X c #F2B396",
"$X c #C5B6A5",
"%X c #D4BAA9",
"&X c #DD9494",
"*X c #D2C19B",
"=X c #ECC885",
"-X c #FDC885",
";X c #FDD488",
":X c #E5C591",
">X c #FEC999",
",X c #FBD997",
"<X c #E8D59D",
"1X c #FFE49A",
"2X c #FFE28D",
"3X c #CCC6AA",
"4X c #D7CFB7",
"5X c #FBCBA9",
"6X c #EAD9A9",
"7X c #FED3AD",
"8X c #FDD9A8",
"9X c #FFDDB3",
"0X c #FEDDBB",
"qX c #FFD7B0",
"wX c #EFCBAF",
"eX c #FDE3A2",
"rX c #FEE5AC",
"tX c #FFEBAC",
"yX c #FBE8A9",
"uX c #EEE4BB",
"iX c #FEE3B3",
"pX c #FFEBB4",
"aX c #FFE5BB",
"sX c #FEEBBD",
"dX c #F4E6B9",
"fX c #FEF2BD",
"gX c #FFF1B3",
"hX c #FFF1AD",
"jX c #B986C4",
"kX c #C48BCA",
"lX c #C593CA",
"zX c #CA8FD5",
"xX c #D4B5DC",
"cX c #DAB6E4",
"vX c #FCDAC5",
"bX c #E4D6C5",
"nX c #FFE5C4",
"mX c #FEECC4",
"MX c #F5ECCC",
"NX c #FEECCB",
"BX c #F8E9C6",
"VX c #FEF3C4",
"CX c #FEF3CB",
"ZX c #F9F6CC",
"AX c #FEEDD4",
"SX c #F9ECD4",
"DX c #FEF3D2",
"FX c #FFF9D3",
"GX c #FEF4DA",
"HX c #FFF9DA",
"JX c #F7F9D2",
"KX c #ECEACD",
"LX c #EBCBF2",
"PX c #FFEEFF",
"IX c #FFF9E1",
"UX c #D8D5C4",
/* pixels */
"X X X   O 8 X X X # + + O X X   O   X X X   . 7 7 =   X X @ + O O @   X w [., X g : q # # #   X < h ",
"X X   w +   X X o . % % $ & o #   X X   O   + + .   X @ @ @ + + O   O   # , X   b U _ U # X   # s J ",
"  @ + = # X X : . r i M Z i %   . X   O O 5 O   #   # #   + +   O #       # # X o z b ,       o < A ",
"4 2 O + X   & % a @.&.*.*.+.y $ .   + 3 O     o X : |.. O O O +   O + 5 v   #   #   #       #   . 1 ",
"3 3 + +   $ i ` >.-.z.g.g.d.%X XE c   + . o . > > o : o X o + O O     O + #   b   #   # o # o z & o ",
"+ + . 8   r %.3.z.-.>.k.j.-XpXDXGXUXI o . A a. X X].U X X     + O # O O     #   O     w o - . o . . ",
"* .   w $ L 1.2.1.<.$.H.A.D.rXNXGXGXIXQ p.$XOX{.].p. X].w o   X     @       + O # #   o . o & , o o ",
". X q _ r $.J.1.$.&X_.$.Z.B.,XmXnXNXNXBX*XW p < o > g  Xp.o X X X #       O   O O   o - & , g s s - ",
"  X e z d #._._.(.lXlX_.C.B.R.@X@X7XsXFXp.  o   . o . #.$Xo   0   X X O   O   O O   #   o g A J c g ",
"@ @ o . ~ (.lXkX`.'.kX{.f.A.g.g.>.E.aXCXKX_ < * $ . * W  X* O I e   o o     #       . o < g E |.E c ",
"X f   9 /.`.zXzXjX/.jX#.+.E.:.:.:.k.9XCXJXK * r N G ] s.O..   q   w       # O I 5 O   o & g U p.E h ",
"    O k (.lXkXzXlX^.( ^ o.K.:. .:.K.aXFXJX! y i.x.S.S.I.N $ &     o o ,       O   v -   o w s H A g ",
"6 + 3 P (..XxXLXcX) ~ T T P.A.5.l.>XNXNXVXI.f.D.V.V.B.Z.[ ' $ < # z             #   o Y , o o w < < ",
"2 + 3 P XXlXLXPXPX/ /.^ L P.M.B.1XVXNXHXpXR.V.r.w.N.e.q.D.f.a $ $ b # 5     O O       # z   + - o , ",
"7 7 Y P XXjXlXcX).) LX#.o.P.Z.D.eXmXGXNX,XD.n.q.q.q.r.r.q.v.&.m $ . +   O   #     @   #   # O o # q ",
"8 .   v `.kXkX/.( ( ) T ' R.D.~.gXNXnXaXP.v.q.e.n.B.q.t.0.N.l.' y .   O O # O       #   # O O # o X ",
". o o k (.kX.X( ( ( / T d.D.v.;XsXNX5XH.P.;XB.q.b.j.} 5.t.e.m.f.N % . # O O +   @ X X X   O . . . o ",
"o     3 ) XX(.~ ^ ^ L u.S.Z.!.eXiX>Xd.E.rXeXD.b.5.7. . .9.8.n.Z.y.r . #   + . .   @ #   o q x x < > ",
".   5 3 Y /.~ ^ T @.d.C.S.S.,XeX!.x.C.,XfXsX,Xl.| |  . . .7.b.D.C.' r . 5 9 .   @ O     q < c A U U ",
"  8 O 2 2 Y T O.G.R.Z.D.S.2XtXT.S.S.U.~.,XpX9X@Xg.|  .;. . .j.m.A.f.m $ 8     o O O   # & . < h |.|.",
"o   O 3 O * u.T.Y.Y.Y.-X1X,XT.T.;X=XQ.Q.S.;XVX8Xh.5...;.;.X.7.j.m.A.@.y .   X   O O @ @   & . ; v v ",
"o . + 3 O o p i.P.[ G.:XrX8XT.eXpXVXtX1XY.U.pXiXY.6.| ..;.;. .7.b.m.l.' % .   + 8 # O     w o     X ",
"X X . ; . . * * & . $ V 6XeXpXiX7XnXmXpX;XU.,XtX,XZ.6... .;. .} 9.b.A.f.a % s . o   @ O   .   @   X ",
"X   $ . . .   X X o Q 6XyXpXnXJ.1.&XvXmX1XU.=XgXhX!.M.6. . ...} 5.w.B.C.@.y $ ;     O O     O O O X ",
"  o o O #   & h V  XCXdX<XaX5X3.,.>.J.0X1XU.=XfXpXrXY.h.......} 9.q.N.A.d.Z t .   #   O O O   @ O   ",
"+     o   o & a.BXmXVXsX6XaXJ.2.,.,.#X0X1XU.,XsXmXpX,XE.g.| 7.8.q.N.q.m.A.y.* X X q   0 O O #       ",
"6 = y L V Q 4XDXDXGXAXGXBXmX#X3.=.L.vXsX!.S.rXNXCXsXfX,Xl.6.8.n.0.0.N.n.B.d.p   O   O O   O . o # # ",
"6 . m u.wXNXGXDXHXSXGXMXBXCXnX5XJ.#XDXpX~.!.fXCXNXmXVXpX!.A.b.N.r.0.n.N.n.S.C o . = .   U - . . O O ",
"7 M &.f.@XnXnXGXMXFXMXBXfXfXnXNX0XnXNXuX:XtXVXVXNXDXCXfXeXY.B.0.0.r.N.B.N.S.O.$ $ $ & & & p $ = # # ",
"= r &.*.&.5XvX4X{.K 3XFXfXfX0X0XCXCXNXMXmXVXVXCXNXAXCXsXrXC.b.q.r.0.w.V.V.C.N C a a .   A oXs .     ",
"& . y O.O.M .   . ! uXVXaX+X#X+X7XaXNXDXFXCXVXCXHXDXCXiX@Xg.6.b.q.r.N.V.D.{ a G.f.Z $ $ ; d < o     ",
"X o   & r u . o g bXFXVX7X#XaX5XwXnXNXDXNXCXCXCXMXHXmX>Xg.:.| h.D.F.F.S.4.y.,X=XU.d.V $ % $ . o X X ",
"+   #   . &   s 4XMXCXFXqX+X5X+XO.W MXFXBXFXCXFXDXCX8Xk.:.:.-.R.,X;XQ.,XgXfXpXtXI.T.G.a a t . < .   ",
"e 5 0   - $ % {.NXFXFXdXNXnXwXL $ & H KXFXNXGXNXCX9Xk.:.:.:.k.rXVXaXrX6XfXZXFX*XN y.B ] u.C y % & - ",
"# #   . y o.<.7XmXVXmXHXGX%XS $ . +   c  XMXAXNX9XK.:. .-.k.7XnXNXCXCXdXdXMXbXS r % N T.U.f.Z i $ g ",
"8 #   * m <.>.K.9XsXFXKX_ & < . # O o o   H 4XqXK.g.:.X.k.@XNXGXNXCXmXCXuXOXs $ l #.8XQ.S.D.l.' a * ",
"+ # # . M 1.,.>.K.:Xa.F # # 5 X     = .   . $ L *.>.-.z.-XaXnXGXCXCXFXCXFXa.O.OXGXHXmXpX!.Z.Z.x.O.V ",
"3 3   . D <.*.>.f.G . : O O     X   + . +     r ' *.k.@XaXVXFXDXCXdXCXHXNXFXCXCXZXCXCXmXT.T.C.U.O.j ",
"3 3 + o t m ' @.+.a o @ O O + o   X O + O O . . % m o.0XDXBXCXCXBXFXmXCXAXDXHXCXVXVXCX6Xp a ] G t . ",
"7 + O O   . r m y % o 5 O @ O   w X @   O O O . $ s % h 3XGXFXZXZXVXCXCXNXHXMXFXVXCXMXA . o $ $ . o ",
"8 + 5   @   # . $ . . O O # + .     @ O @   , . .   o   o E 3XZXZXVXHXAXAXGXCXCXCX4XH   O O   X   o ",
"- o   n 4 4   O k   # O I o . - - #   O O O @ X o   O O O X > ! MXMXAXGXAXNXnXCX4Xc   O 2 4     w s ",
">   # @ @   0 5 O 5   + o   # R     z O O O         O 5 O O z . < _ $X$X+X+Xs.O.1   0 O O O   o . & ",
"o X X X   O #     O . . + # O @ o . O + +   @ X # #   O O O . . + + & t a a t % . @   O +   = .   . ",
"X o   #   o   o X X . + O + @ X w o # O + O # O X @     O + . = 3 O 7 + $ u $ * X X   @ O + = + + . ",
"    #   #   o f o   + + +   X X o       O I + X X X X o = . . O O + O 3 O b .   X X   O O + . e + O ",
"  3 7 3 O   X :     O 2 3 +     X O O #   o     o w U -   -   @   # v   O   @     o   #     @   X X ",
"3 + 3 3 O @ X X X O 3 2 O   . o   O         o . o I ].s   o @ X X X o X   @   O     #   @ X X X X X ",
"  + + + # O X X X O O O O   o # _ #   #   o   o x   # o o   #   X R X   O @   O   O # X   X # # o   ",
"  # O O O O     # e #       O   #   X X   #     O       x q o z   @   X     + # O       # # I v   X "
};
