/* XPM */
static char *_3544b237b3b4b23865dc68a93a1cbe1btg8JwuzL0AXSXfB[] = {
/* columns rows colors chars-per-pixel */
"50 50 236 2 ",
"   c #030303",
".  c #0B0402",
"X  c #030905",
"o  c #0B0A04",
"O  c #04040A",
"+  c #0A040B",
"@  c #030A0B",
"#  c #0B0A0B",
"$  c #140301",
"%  c #1B0200",
"&  c #120B03",
"*  c #1C0B01",
"=  c #11050C",
"-  c #130C0B",
";  c #1A0E0D",
":  c #0C1002",
">  c #0E110D",
",  c #141105",
"<  c #1A1402",
"1  c #14120C",
"2  c #1B130B",
"3  c #1C190C",
"4  c #030511",
"5  c #0C0311",
"6  c #040A14",
"7  c #0C0B11",
"8  c #0A0B19",
"9  c #130312",
"0  c #120D13",
"q  c #12001A",
"w  c #18001C",
"e  c #0C1313",
"r  c #091713",
"t  c #141313",
"y  c #1B1411",
"u  c #1B1A15",
"i  c #1C161A",
"p  c #1C1B19",
"a  c #151819",
"s  c #230200",
"d  c #240D00",
"f  c #280A03",
"g  c #380100",
"h  c #261608",
"j  c #331400",
"k  c #221D1C",
"l  c #221C14",
"z  c #1D221B",
"x  c #18260F",
"c  c #392A0E",
"v  c #24221D",
"b  c #2D2719",
"n  c #32271B",
"m  c #170321",
"M  c #1F1C23",
"N  c #241F23",
"B  c #1E2624",
"V  c #2A2426",
"C  c #272623",
"Z  c #342B28",
"A  c #2A3425",
"S  c #3B3629",
"D  c #3E3B35",
"F  c #393535",
"G  c #362930",
"H  c #450000",
"J  c #442B13",
"K  c #6F3E1A",
"L  c #413C32",
"P  c #483936",
"I  c #593426",
"U  c #3E443A",
"Y  c #4B463A",
"T  c #544935",
"R  c #75502F",
"E  c #353C42",
"W  c #603968",
"Q  c #554C44",
"!  c #575649",
"~  c #505149",
"^  c #784B46",
"/  c #614B5C",
"(  c #734956",
")  c #695D50",
"_  c #666459",
"`  c #75735E",
"'  c #5C4F63",
"]  c #674C6A",
"[  c #66556E",
"{  c #6A4B74",
"}  c #694875",
"|  c #714E76",
" . c #6A5474",
".. c #745377",
"X. c #754C64",
"o. c #797168",
"O. c #834A26",
"+. c #88512C",
"@. c #D67F3B",
"#. c #EA7B2B",
"$. c #E67A36",
"%. c #F27A3C",
"&. c #F0782C",
"*. c #814759",
"=. c #8B535F",
"-. c #945A59",
";. c #99694D",
":. c #977451",
">. c #846962",
",. c #A36A6F",
"<. c #DA7A58",
"1. c #CC7B50",
"2. c #E87C5A",
"3. c #EF7C46",
"4. c #C77D71",
"5. c #DB8637",
"6. c #E78337",
"7. c #F6863C",
"8. c #EC822A",
"9. c #F7A63B",
"0. c #BD8555",
"q. c #B89B5F",
"w. c #888574",
"e. c #85826F",
"r. c #B4936A",
"t. c #B78976",
"y. c #B68B6C",
"u. c #CD844B",
"i. c #CE8647",
"p. c #D98648",
"a. c #D79248",
"s. c #C98759",
"d. c #D68255",
"f. c #CC9155",
"g. c #DB965F",
"h. c #E7854B",
"j. c #F3824C",
"k. c #E58653",
"l. c #E3944A",
"z. c #FDAC4C",
"x. c #FAB548",
"c. c #EBA95F",
"v. c #FEAE53",
"b. c #FDA25B",
"n. c #F9A75A",
"m. c #EAB35A",
"M. c #FEB254",
"N. c #F4B55B",
"B. c #C68965",
"V. c #C88976",
"C. c #D28C6A",
"Z. c #D8A666",
"A. c #D8B67A",
"S. c #D6AD70",
"D. c #E8AB64",
"F. c #FEAA62",
"G. c #F9AA69",
"H. c #ECB464",
"J. c #E6B568",
"K. c #F4B264",
"L. c #F8B368",
"P. c #F4AD73",
"I. c #E7B677",
"U. c #F7B775",
"Y. c #EDC67E",
"T. c #7A5684",
"R. c #815D8D",
"E. c #876788",
"W. c #8D6994",
"Q. c #92619B",
"!. c #956E8B",
"~. c #995CA2",
"^. c #9271A0",
"/. c #9E9888",
"(. c #A79080",
"). c #ACA893",
"_. c #B893BF",
"`. c #B5B8AD",
"'. c #DD9184",
"]. c #CCB686",
"[. c #D7B684",
"{. c #CBB799",
"}. c #D5BE9F",
"|. c #E7A886",
" X c #E2B784",
".X c #F6BA86",
"XX c #FFAE81",
"oX c #C6B7A4",
"OX c #E1BCA1",
"+X c #E48D86",
"@X c #EBCE9B",
"#X c #F8CF95",
"$X c #FFE69B",
"%X c #D1C9B0",
"&X c #FFDDAB",
"*X c #FFDAA6",
"=X c #FFDAB6",
"-X c #E8D9B8",
";X c #FFECA3",
":X c #FFE5AC",
">X c #FFEBAB",
",X c #FFE3A2",
"<X c #FFF1AB",
"1X c #FFE3B2",
"2X c #FFEDB4",
"3X c #FFE5BA",
"4X c #FFECBC",
"5X c #FFF2B4",
"6X c #FFF3BD",
"7X c #BD97C7",
"8X c #B88BC6",
"9X c #C589CA",
"0X c #C293CD",
"qX c #C992D3",
"wX c #CB8ED3",
"eX c #CCA2D4",
"rX c #FFE5C1",
"tX c #FFECC4",
"yX c #FEEDCC",
"uX c #F6E8CB",
"iX c #FFF2C4",
"pX c #FEF3CC",
"aX c #FBF6C9",
"sX c #FEEDD3",
"dX c #F7EDD9",
"fX c #F7F2D3",
"gX c #FFF3D3",
"hX c #FEFAD4",
"jX c #FDF3DB",
"kX c #FEF9DC",
"lX c #F3F9DA",
"zX c #F0D9F3",
"xX c #F4EFE2",
"cX c #FFECFF",
"vX c #F9FBFF",
"bX c #F9F6E1",
/* pixels */
"F a X X     O   + +   O O O +         # + 9 7   o   + + O 4 4 O X   + # + O + . y . o . o D i # O O ",
"Z p # # # X     #     X   X   - O   #   = +   #     # 0 a @ @ X # o   O O + . = 2 D S - y D k +     ",
"= .     # O   +   O O   @   #   X @ O   . $ . . o   t D F . o u 1 p t t .   . l Y ! L 2 o - o   # O ",
". . . # t # + + +   X @       #   . h s t.. -         t - . - D _ ~ v #   . & Z o.)._ , o   v ~ t # ",
"+ . O X # O     O + X   #   . . f g d.1.B.s . O   X r   O o   k C v .     o o l _ w.! 2 o   p C t O ",
"  O X X X O + + +   O X   . . s y.d.j.h.|.I G 8 O   E a 7 + +     o     . o . - 3 ) Q 2 - . O   t O ",
"X X X X           #       $ $ t.B.:Xn.G.,.!.W.7XE.m m O i + 9 9 + O   O # ; = . - 2 1 . +   O O 7 # ",
"O   X X     +       X o . $ (.OX3X#XK.P.,.Q.7X7X0X0X^.q     + + O + # + + + - . . . #     + O O O   ",
"+ C       O #     O X   o . sXyX:XI.J.;.!.8X7X7XwXwX0XW.  X X 7 O   # + # - y . .   # # + + O O     ",
"= V i 1 .   + + O X       fXyXtX<XJ.I.;.E.W.cXcXqXwX~.W.+ X X @ O # # # k v v 2 - & - . + O   + # # ",
"  #     # + +   O O # : o gXyX2XY.H.D.+.( zXvXvXcXQ.9XqXE.  #         2 S Y Q S l , .   .     # C V ",
"  X X   # O     O # a Y jXgXtX4XU.L.P.O.^ / vXvX[ eXwX9X^.+     . . , 3 L e./.T b 2 . . o     # p p ",
"O @ e X X     + O O u , sXtXyX.Xp.F.P.+.( ] ' [ ] W qXqX7Xq + # 1   . , S ` w.Y n & . o o           ",
"O X X     # +   O   # . jXgXtXs.p.p.P.R ( | cXE. .| 8X0X0Xq + O 1 o & & l n S n l & . .     o   O O ",
"O # O o     +     7     kXtXtXs.p.5.L.O.X.} zX[ | R.T._.W.5 0 O + k Z o o 3 3 3 & k 0   O O # O # O ",
"O O   #     O   O     o dXgXtX1X#XK.N..X( { ]  .T.} { 7XE.5 +   O   y # . o o & 1 D N   O @ O O O   ",
"O O   # + 5     #     w.`.xXgXtXtX>XN.c.^ X...{ ..{ {  .q O O     o o   . . o 1 , L G = O   O O O O ",
"X     # O 4 X   # y & %Xo o uXgXyX6XN.L.|.-.=.=.*.( ( / + +   # X     O . &   o o k V # a B #       ",
"O     o   O @ X t $ $ {.. . < sXyX3X,XF.XX<.<.2.2.<.V.%   # + O 4 8 @   ; $ . -   o v # p V +   + O ",
"O X     O O @ X   = $ {.$ d c * 4X0.i.h.h.3.j.%.3.j.s.s $   $ . 4 O   ; P Q l 1 o   o o o # + +     ",
"O O O O O O O O 7   . oX}.d j f.I.a.i.p.k.k.d.h.$.$.I.tXyX{.{.$ . + ; $ l Y Y _ U >     +     O O O ",
"+   + O O   O   @ 6 O . {.[.A.S.J.;X>X&X1X1X&X*XU.b.L.:XrXgX4XiXjX. % $ * < ~ )._ u #   # #     X O ",
". . o       & .   4 @ # * [.I.2X6X1Xu.&XtXrX2XJ.b.b.6.i.yXgXiX4XaXpX% s . : x A Z $ = O O O   .   X ",
".   X   o o 2 - O O X   % 4X2X2XtXpXB.s.yXyX>XH.6.7.#.p.rXgXpXiXaXiX=Xt.d .   X . $ = + O   o   O O ",
"O O @ @ + & & . o   . * ].6X6XiXpXtX3XS.gXtX2XL.6.&.#.l.yXlXfXpXpXpX4.4.V.%   X O + + + + O   X X   ",
"O @ O @ . y Z 2 3 & . ].@X4XpXpX4XiXr.tXtXaX>XD.5.7.F.Z.$ o o o . % '.+X4.s . X O O + + + O X X O   ",
"  X   O ; S o.Y C & -XtXpXtXtX4X2X:XyXpXiX6X<X;Xm.H.Z.iX$ + .   & . T % % $ . O O O O O O + + + +   ",
"  o X   & n _ D u o gXpXyXpX1Xf.@.U.tXgXiX6X5X5X<X>X6XgX- +   .   . -   # o #       O O O + + + + O ",
". O @   . $ l # e   jXgXyXtXc.5.6.b.*XtXgXpXiXiXiX4XiXgXu O . .   O @ r @     o     O O O @ O O O o ",
"+ O 6 O = .   X @   jXgXsXs F.8.#.$.P.tXyXyXpXpXpXgXyXjX. X   . &   X B   X   o   X O O @ O O       ",
"5 O @ X $ . X @ 4 . yX3XsXg F.6.7.$.L.>XpXgXkXyXgXgXtXgXo X o . & & 3 h n $ .   O O O   X X O   t # ",
"4 O     . . @ O 4 . K s.B.g G.$.%.6.K.;XtXgXyXpXtX4XtXrX$ lXdXjX).$ d ) >.f . + O O +   X X O + F p ",
"4 O +     o @ O 9 s C.<.2.k.b.6.6.6.n.;X3XrXyX4X5X,X&Xs.tXgXgXpXA.[.R c ; + #   .     X O 7 O 7 M # ",
"  #   .     e # . s V.C.d.H n.n.v.z.M.a.d.s.y.@XI.U.u.s.tXtXpXiX5X2XpX. 1 #   + +   O   X     + # O ",
".     #   o         & * J j s H.z.M.v.5.u.s.3XiXI.S.@XiXpXhXhXpXiXpXyXjX  1 o     O O O   #       X ",
".   M O o         @ @ A ! < $ J.x.9.v.$X2X2XiX4X4XiXiXaXlXlXdXjXyXgXjXjX& . o u # +   #   1 o o o O ",
"+ + 4 4 O # ; . =   X X z & s J.x.x.N.;X4XtXaXiXyXpXpXfX:   . ; jXfXuXbXo     a p o .   . . + O O O ",
"+ + 6 4 O a = .   # @ X t . %  XH.m.I.@XgXkXaXhXpXgXyXo o X O . . gXgXhX& . , u l . . & .     O + . ",
".   F O e   + + + O O +     $ % $ $ . $ xXdXjXuXgXyXdX$ .   . & $ tX6X:X% f j T 3 . + i + +   + * d ",
".   # X X X O O 5   +     + 5     # O O   . & %XpXgXjX. .     . $  XJ.H.H.J.A.j h .   5 O O O o h J ",
"t o   o @     6 O   .     O @ 6 @ X X     o   . aXpXdX2 # @ X . s P.n.v.z.v.K. X$ $   O O @   . $ h ",
"7 #       @ @ O O   . .   1 @ 6 6     X     o   gXpXgXT ~ 7 X $ s 0.i.l.l.a.f.R $ . # @ O O       . ",
"4 O X >         + +   . . 3 o O O 8     # 7 . % sX3XiXc S ; $ . & & $ $ $ $ $ . o       O . 0 t O O ",
"4 4 # z # # o o   .   +   & .   O + . .   0 . I |..XZ.q.* . $ . X   @   O # X C p o     .   7 + O O ",
"X X o 1 o p 1     # 4 O     O X . .   o . . $ r.G.M.x.m.Y.$ . .   > X   @ @ X # t . + + + O O     - ",
"X     .   7 # o o X O @ O   O       X     & & % i.5.M.N.J.$ & . .     @ @ @ O .       O O O + + . ; ",
"# O . = 5 O O t       7 o   O O + O X X +       % K u.g.[.$ $ . .   7 O O 0 + . . X O O O O . .   O ",
"  O + + 5 5 O X   o   i - . O 7 +   X X   7 O @   $ ;.O.:.. . +   .     5 5 = +   X   @ e t . . + # ",
"O O     O O O O X O O   . .   t Y S o O O O O O   . $ $ . .   O O O O O O O + O   >   X # o   o O O ",
"O X X O O O O O   O O   O . . u ) Y -   O O       o + O O O O   O O O O O O O O o t O   # O   O O O "
};
