/* XPM */
static char *ae880c81aa194cf2ceed6b02e313a5c2fTT9zFcVo1GyQmvY[] = {
/* columns rows colors chars-per-pixel */
"50 50 6 1 ",
"  c #46424A",
". c #403C44",
"X c #4C474F",
"o c #39363D",
"O c #534D55",
"+ c #5B545B",
/* pixels */
"  . . X  X        ..ooo. ..oooooo.oo...o  . ...   ",
"  .  XX     X  XX .oo... ..ooo.ooo......  ..X X   ",
"XX   XX  . XX XXX .oo... ..ooo..o..   X   .      X",
"X  . X . .. X  XXX ..  ..oo.. .....  XX  ..  ..  X",
"  ..  . ...        . X ....    ..o.  XX   XXXXXX  ",
" .......ooo.  X  X    . ...XXX...o.. XX XXOXXOOX  ",
"..o.o..o.oo . X .XX     .o. XX ...o. XX XOOOOOOX  ",
"...o........     XX XXX .o. X  . .o.XXXXXXX XOOXX.",
"..o.ooo..oo.  . XXXXXOX .. X   X .  XOXOXX  OOOX .",
".ooooooooooo .   XOXOOOX  XXXXXX   XXOOXXX XOOX ..",
"oooooooooooo..   OO++++OOOXXXOOX . X XXXX  XOXX ..",
"oooooooooooooo.. O+++++++OOXOOOX.. XXXXXXXXXX ....",
".ooooooooooooo.  XOOO++++O+OOOX.o.XXXXOOXXX .oo...",
"oooooooooooooo.  OXX+++++O+OOX o. XXXOOXX  ...oooo",
"ooooooooooooo.  XXXOO++++++OX ..XXXXXXOOOXX ..o..o",
".ooooooooooooo.  XXO++++++OXO . XXXXXOOOOOXX..oooo",
".ooooooooooo... X XO++++O+OOO  XXXXXOOXOOXXX....oo",
"oooooooooooo.. XXXO++++OO+O+OXXXXO+++OO+OXXX.  .oo",
"ooooooooooo.  XXXXOOO++++OO+OXX++++++OO++XXX   .oo",
"ooooooooooo.  X XXX XO++++OXX O+O+++++++OOXX   ...",
".ooooooooo. XX  X  XOOO+OOXXXOOOO+++O++++OX X     ",
".oooooooo.. XX XX  XXOO+OXXXOOOOOO++O++++OXX      ",
"..ooooooooo   XX .  XOOOXXX XOOOOO++++++OOXOX     ",
".ooo.o...o.   O  X   XXXXXXXOXOOO++++++++OXXX X   ",
"oo...o. .o..  X   .    XXXXXOXOO++++++OOXX  .    .",
"o.....  . ... .oo..  XXX X   XOO+++++OO+OOX X   .o",
".o..    X  ..o.oo.  X   .  . XOO+OO+OOOO+XOX   .. ",
"... XXXOX  ..ooo.... ...   . XOO++++OOOOOOXX.  ...",
" ..XOXXXX   .....o......   . XOOOOOOO++OOXOX    ..",
"... XXXOXXXX...  . .....    XXXOOXO+++OOOXX . ....",
" .  XXXXXX  .  X   .      XXX X  X++++OOXX ....o..",
" .. XOX XXX XOXXXXX  XXX XOX     O+OOOOXX    . ...",
".. XXXXXXOX XOXXOOO XX   XXX     XX X X  ..o...XX.",
". X XOXXOOOXXXXOOOOXXX   XX    .. XX . ....ooo.XX.",
"  XOO OXO+OXXOOXO++XOOX XXX    ..XX  ....oooo. OX ",
" XO+OOOOOOOOOOO++++OOXXXXXX    ..  ........oo XXX ",
"XOO+++OOOOOOO+++++++OXOOXXX ....  . .......o.  XXX",
"++++OOOXOOXO+++++++OXXXXXX    .. .. .o.....  XX+OO",
"++++OOOXOOOO+++++++OXXXX XXXX . .. ..... ..XOO++O+",
"+++O++OXXXOO+++++OOXXXXX OOXX  ..  . .o..o.XXO++++",
"++OOXXXX XO+++OOOOXXXXX  OO   ...... .o.o. XXXOO++",
"O+OX  X  XO+++X++OXXXX  XOXX ......ooooo.. X  X++O",
"OOX XXX  XXOOXO+OXXXXXX XX ...ooooooooooo .o. X+OX",
"OXXO  .    XXOOOOXOOOOX  .ooooooooooooooo.ooo XOOX",
"+OX .o.    XOOOXOXXOOO   oooooooooooooooooo.o.XOXX",
"OX.oo.. . XO+OXXXXXXX   .ooooooo..ooooooo. .. XX  ",
"X ......o OXOXXXXXX  X...oooo.. ...oooooo..      X",
" ..  . .. XXXX X    X ..oooo.....ooooooooo.  . .  ",
".. X      X  X . XXX ..oo..oooooooooooooo..  X  ..",
".   X XXX X  X   XX .ooo..oooooooooooooo...X  .  ."
};
